# xmcd
#
# Track frame offsets: 
#        150
#        14785
#        27722
#        41105
#        55492
#        68837
#        80887
#        97075
#        109275
#        126540
#        140292
#        152740
#        166860
#        179340
#        191687
#        203287
#        215005
#        232112
#        247510
#        261020
#
# Disc length: 3672 seconds
#
# Revision: 4
# Processed by: cddbd v1.5.1PL0 Copyright (c) Steve Scherf et al.
# Submitted via: ExactAudioCopy v0.90b4
#
DISCID=2c0e5614
DTITLE=Bill Monroe And His Blue Grass Boys - The Essential Bill Monroe
DTITLE=(1945-1949) (Disk 2)
DYEAR=1992
DGENRE=Bluegrass
TTITLE0=I'm Going Back To Old Kentucky
TTITLE1=It's Mighty Dark To Travel
TTITLE2=I Hear A Sweet Voice Calling
TTITLE3=Little Cabin On The Hill
TTITLE4=My Rose Of Old Kentucky
TTITLE5=Blue Grass Breakdown
TTITLE6=Sweetheart You Done Me Wrong
TTITLE7=The Old Cross Road
TTITLE8=That Home Above
TTITLE9=Remember The Cross
TTITLE10=Little Community Church
TTITLE11=Along About Daybreak
TTITLE12=When You Are Lonely
TTITLE13=Molly And Tenbrooks (The Racehorse Song)
TTITLE14=Shine Hallelujah Shine
TTITLE15=I'm Traveling On And On
TTITLE16=Can't You Hear Me Calling
TTITLE17=Travelin' This Lonesome Road
TTITLE18=Blue Grass Stomp
TTITLE19=The Girl In The Blue Velvet Band
EXTD=
EXTT0=Bill Monroe\n
EXTT1=Bill Monroe\n
EXTT2=Bill Monroe\n
EXTT3=Bill Monroe\n
EXTT4=Bill Monroe\n
EXTT5=Bill Monroe\n
EXTT6=Bill Monroe, Lester Flatt\n
EXTT7=Bill Monroe\n
EXTT8=Bill Monroe\n
EXTT9=Bill Monroe, Howard Watts\n
EXTT10=Bill Monroe, Lester Flatt\n
EXTT11=Bill Monroe\n
EXTT12=Bill Monroe, Lester Flatt\n
EXTT13=Bill Monroe\n
EXTT14=Bill Monroe\n
EXTT15=Bill Monroe\n
EXTT16=Bill Monroe\n
EXTT17=Bill Monroe\n
EXTT18=Bill Monroe\n
EXTT19=Mel Foree, Cliff Carlisle\n
PLAYORDER=
